<svg width="256" height="256" viewBox="0 0 256 256" fill="none" xmlns="http://www.w3.org/2000/svg">
<g clip-path="url(#clip0_83_305)">
<path d="M177.502 105.263L194.312 76.2307C194.775 75.4293 194.9 74.4779 194.66 73.5848C194.42 72.6917 193.835 71.9299 193.032 71.4663C192.228 71.005 191.274 70.8805 190.378 71.1201C189.482 71.3596 188.718 71.9436 188.254 72.7439L171.234 102.144C158.216 96.2208 143.598 92.9211 128 92.9211C112.402 92.9211 97.7818 96.2208 84.7664 102.144L67.7458 72.7431C67.2816 71.9429 66.5176 71.3591 65.6217 71.1197C64.7258 70.8803 63.7711 71.0049 62.9673 71.4663C62.1642 71.9296 61.5784 72.6915 61.3384 73.5847C61.0985 74.478 61.224 75.4296 61.6875 76.2307L78.4982 105.263C49.6324 120.919 29.8896 150.061 27.0017 184.489H228.998C226.108 150.061 206.364 120.919 177.502 105.263ZM174.408 139.031C179.007 139.031 182.747 142.827 182.747 147.493C182.747 152.161 179.007 155.96 174.408 155.96C169.811 155.96 166.071 152.161 166.071 147.493C166.071 142.827 169.811 139.031 174.408 139.031ZM81.5913 139.031C86.1883 139.031 89.9292 142.827 89.9292 147.493C89.9292 152.161 86.1883 155.96 81.5913 155.96C76.9927 155.96 73.2534 152.161 73.2534 147.493C73.2534 142.827 76.9935 139.031 81.5913 139.031Z" fill="#3DDC84"/>
</g>
<defs>
<clipPath id="clip0_83_305">
<rect width="202" height="114" fill="white" transform="translate(27 71)"/>
</clipPath>
</defs>
</svg>
