<svg width="171" height="256" viewBox="0 0 171 256" fill="none" xmlns="http://www.w3.org/2000/svg">
<g clip-path="url(#clip0_83_234)">
<path d="M42.6683 256C66.2203 256 85.335 236.885 85.335 213.333V170.667H42.6683C19.1163 170.667 0.00164795 189.781 0.00164795 213.333C0.00164795 236.885 19.1163 256 42.6683 256Z" fill="#0ACF83"/>
<path d="M0.00164795 128C0.00164795 104.448 19.1163 85.3333 42.6683 85.3333H85.335V170.667H42.6683C19.1163 170.667 0.00164795 151.552 0.00164795 128Z" fill="#A259FF"/>
<path d="M0.00164795 42.6667C0.00164795 19.1147 19.1163 0 42.6683 0H85.335V85.3333H42.6683C19.1163 85.3333 0.00164795 66.2187 0.00164795 42.6667Z" fill="#F24E1E"/>
<path d="M85.335 0H128.002C151.554 0 170.668 19.1147 170.668 42.6667C170.668 66.2187 151.554 85.3333 128.002 85.3333H85.335V0Z" fill="#FF7262"/>
<path d="M170.668 128C170.668 151.552 151.554 170.667 128.002 170.667C104.45 170.667 85.335 151.552 85.335 128C85.335 104.448 104.45 85.3333 128.002 85.3333C151.554 85.3333 170.668 104.448 170.668 128Z" fill="#1ABCFE"/>
</g>
<defs>
<clipPath id="clip0_83_234">
<rect width="170.67" height="256" fill="white"/>
</clipPath>
</defs>
</svg>
