<svg width="256" height="256" viewBox="0 0 256 256" fill="none" xmlns="http://www.w3.org/2000/svg">
<path d="M46.4 196.8L47.76 194.904L111.92 73.192L112.056 71.904L83.776 18.784C83.2583 17.8126 82.4482 17.0286 81.4604 16.5429C80.4726 16.0572 79.3571 15.8944 78.2717 16.0775C77.1863 16.2606 76.186 16.7804 75.4122 17.5633C74.6384 18.3462 74.1304 19.3525 73.96 20.44L46.4 196.8Z" fill="#FFC24A"/>
<path d="M47.2 195.36L48.224 193.36L111.72 72.912L83.512 19.584C83.0468 18.6566 82.2937 17.9049 81.3654 17.4414C80.4371 16.978 79.3836 16.8279 78.3628 17.0135C77.342 17.1991 76.4088 17.7104 75.7031 18.4709C74.9973 19.2315 74.5569 20.2002 74.448 21.232L47.2 195.36Z" fill="#FFA712"/>
<path d="M132.672 112.08L153.728 90.4799L132.664 50.3119C132.2 49.4475 131.511 48.7249 130.669 48.2212C129.828 47.7174 128.865 47.4514 127.884 47.4514C126.903 47.4514 125.94 47.7174 125.099 48.2212C124.257 48.7249 123.568 49.4475 123.104 50.3119L111.848 71.7679V73.5999L132.672 112.08Z" fill="#F4BD62"/>
<path d="M132.296 111.2L152.768 90.24L132.296 51.2C131.961 50.355 131.389 49.6249 130.648 49.0978C129.907 48.5707 129.03 48.2691 128.122 48.2294C127.214 48.1896 126.313 48.4134 125.529 48.8738C124.746 49.3342 124.112 50.0115 123.704 50.824L112.392 72.656L112.056 73.768L132.296 111.2Z" fill="#FFA50E"/>
<path d="M46.416 196.808L47.032 196.184L49.264 195.28L131.344 113.504L132.384 110.672L111.912 71.6479L46.416 196.808Z" fill="#F6820C"/>
<path d="M135.296 238.048L209.6 196.616L188.368 65.9681C188.216 65.0471 187.813 64.1858 187.203 63.4789C186.594 62.7719 185.801 62.2466 184.912 61.9606C184.024 61.6746 183.074 61.639 182.166 61.8576C181.259 62.0763 180.429 62.5408 179.768 63.2001L46.4 196.8L120.264 238.04C122.56 239.321 125.146 239.994 127.776 239.994C130.406 239.994 132.992 239.321 135.288 238.04" fill="#FDE068"/>
<path d="M208.92 196.272L187.864 66.6079C187.827 65.727 187.529 64.877 187.009 64.1653C186.488 63.4536 185.768 62.9124 184.94 62.61C184.112 62.3077 183.212 62.2578 182.356 62.4668C181.499 62.6758 180.724 63.1342 180.128 63.7839L47.2 196.552L120.248 237.352C122.526 238.623 125.091 239.29 127.7 239.29C130.309 239.29 132.874 238.623 135.152 237.352L208.92 196.272Z" fill="#FCCA3F"/>
<path d="M135.296 236.8C133 238.082 130.414 238.754 127.784 238.754C125.154 238.754 122.568 238.082 120.272 236.8L47.008 196.176L46.4 196.8L120.264 238.04C122.56 239.321 125.146 239.994 127.776 239.994C130.406 239.994 132.992 239.321 135.288 238.04L209.6 196.616L209.416 195.496L135.296 236.8Z" fill="#EEAB37"/>
</svg>
