<svg width="256" height="256" viewBox="0 0 256 256" fill="none" xmlns="http://www.w3.org/2000/svg">
<g clip-path="url(#clip0_83_275)">
<path d="M196 0H60C26.8629 0 0 26.8629 0 60V196C0 229.137 26.8629 256 60 256H196C229.137 256 256 229.137 256 196V60C256 26.8629 229.137 0 196 0Z" fill="#F03C2E"/>
<mask id="mask0_83_275" style="mask-type:luminance" maskUnits="userSpaceOnUse" x="28" y="28" width="200" height="200">
<path d="M28 28H228V228H28V28Z" fill="white"/>
</mask>
<g mask="url(#mask0_83_275)">
<path d="M224.225 119.094L136.906 31.7749C135.106 29.9725 132.811 28.7449 130.313 28.2477C127.814 27.7505 125.224 28.0061 122.871 28.9819C121.309 29.6294 119.889 30.5785 118.694 31.7749L100.569 49.8999L123.569 72.8999C128.919 71.0249 135.044 72.3059 139.306 76.5689C141.335 78.6017 142.751 81.164 143.393 83.9634C144.035 86.7627 143.877 89.6862 142.937 92.3999L165.106 114.569C170.469 112.719 176.656 113.912 180.937 118.206C183.081 120.349 184.542 123.081 185.133 126.055C185.724 129.029 185.42 132.111 184.258 134.912C182.701 138.667 179.716 141.65 175.96 143.205C172.205 144.76 167.985 144.76 164.229 143.205C162.369 142.434 160.679 141.305 159.256 139.881C154.756 135.381 153.644 128.756 155.919 123.212L135.244 102.537V156.944C136.745 157.686 138.116 158.666 139.306 159.844C142.18 162.718 143.795 166.617 143.795 170.681C143.795 174.746 142.18 178.645 139.306 181.519C136.432 184.393 132.533 186.008 128.469 186.008C124.404 186.008 120.505 184.393 117.631 181.519C115.486 179.376 114.024 176.645 113.432 173.672C112.84 170.698 113.144 167.616 114.305 164.815C115.076 162.955 116.206 161.266 117.631 159.844C119.112 158.369 120.756 157.25 122.65 156.5V101.587C120.771 100.819 119.064 99.682 117.631 98.2439C115.479 96.0943 114.016 93.3525 113.428 90.3681C112.841 87.3838 113.155 84.292 114.331 81.4869L91.644 58.8129L31.769 118.625C29.9665 120.426 28.7388 122.722 28.2413 125.221C27.7438 127.72 27.9988 130.311 28.974 132.665C29.6221 134.228 30.5719 135.648 31.769 136.844L119.094 224.156C120.29 225.352 121.709 226.301 123.271 226.949C126.427 228.255 129.973 228.255 133.129 226.949C134.691 226.301 136.11 225.352 137.306 224.156L224.225 137.375C225.422 136.179 226.371 134.759 227.019 133.196C227.667 131.633 228.001 129.958 228.001 128.266C228.001 126.574 227.668 124.898 227.02 123.335C226.372 121.772 225.422 120.352 224.225 119.156" fill="white"/>
</g>
</g>
<defs>
<clipPath id="clip0_83_275">
<rect width="256" height="256" fill="white"/>
</clipPath>
</defs>
</svg>
