<svg width="256" height="256" viewBox="0 0 256 256" fill="none" xmlns="http://www.w3.org/2000/svg">
<g clip-path="url(#clip0_83_268)">
<path d="M196 0H60C26.8629 0 0 26.8629 0 60V196C0 229.137 26.8629 256 60 256H196C229.137 256 256 229.137 256 196V60C256 26.8629 229.137 0 196 0Z" fill="#242938"/>
<path d="M33.716 100.208C33.716 100.208 28.981 96.795 34.663 92.238L47.899 80.402C47.899 80.402 51.687 76.417 55.691 79.889L177.84 172.368V216.714C177.84 216.714 177.781 223.678 168.844 222.908L33.716 100.208Z" fill="#2489CA"/>
<path d="M65.2 128.792L33.716 157.415C33.716 157.415 30.48 159.822 33.716 164.123L48.333 177.418C48.333 177.418 51.805 181.147 56.934 176.905L90.312 151.596L65.2 128.792Z" fill="#1070B3"/>
<path d="M120.474 129.029L178.215 84.9389L177.84 40.8299C177.84 40.8299 175.374 31.2029 167.148 36.2139L90.312 106.145L120.474 129.029Z" fill="#0877B9"/>
<path d="M168.844 222.968C172.198 226.4 176.262 225.276 176.262 225.276L221.259 203.103C227.019 199.177 226.21 194.305 226.21 194.305V61.898C226.21 56.078 220.252 54.067 220.252 54.067L181.253 35.267C172.731 30 167.148 36.214 167.148 36.214C167.148 36.214 174.328 31.046 177.84 40.83V215.905C177.845 217.099 177.583 218.279 177.071 219.358C176.045 221.429 173.816 223.362 168.47 222.553L168.844 222.968Z" fill="#3C99D4"/>
</g>
<defs>
<clipPath id="clip0_83_268">
<rect width="256" height="256" fill="white"/>
</clipPath>
</defs>
</svg>
