<svg width="28" height="28" viewBox="0 0 28 28" fill="none" xmlns="http://www.w3.org/2000/svg">
<path d="M8.68358 6.2417C9.42908 6.2417 10.1186 6.30003 10.7486 6.4727C11.3797 6.5882 11.8966 6.8192 12.3551 7.10737C12.8147 7.3967 13.1589 7.80037 13.3876 8.31953C13.6174 8.8387 13.7329 9.47453 13.7329 10.1664C13.7329 10.9749 13.5602 11.6667 13.1589 12.1859C12.8147 12.7062 12.2407 13.167 11.5524 13.5135C12.5277 13.8029 13.2732 14.322 13.7329 15.015C14.1914 15.7069 14.4784 16.5725 14.4784 17.5537C14.4784 18.3622 14.3057 19.054 14.0187 19.6315C13.7329 20.209 13.2732 20.7282 12.7564 21.0747C12.195 21.4461 11.5744 21.7191 10.9212 21.882C10.2329 22.0559 9.54458 22.1714 8.85625 22.1714H1.16675V6.2417H8.68358ZM8.22391 12.705C8.85508 12.705 9.37191 12.5324 9.77325 12.2442C10.1746 11.956 10.3472 11.4357 10.3472 10.801C10.3472 10.4545 10.2889 10.1092 10.1746 9.8782C10.0602 9.6472 9.88758 9.47337 9.65891 9.3007C9.42908 9.1852 9.19925 9.0697 8.91225 9.01253C8.62525 8.9542 8.33941 8.9542 7.99408 8.9542H4.66675V12.7062H8.22508L8.22391 12.705ZM8.39658 19.516C8.74075 19.516 9.08491 19.4577 9.37191 19.4005C9.65891 19.3422 9.94591 19.2279 10.1746 19.054C10.4084 18.8851 10.6039 18.6689 10.7486 18.4194C10.8629 18.1312 10.9784 17.7847 10.9784 17.381C10.9784 16.5725 10.7486 15.995 10.2901 15.5914C9.83041 15.2449 9.19925 15.0722 8.45375 15.0722H4.66675V19.5172L8.39658 19.516ZM19.4706 19.4577C19.9291 19.9197 20.6174 20.1507 21.5356 20.1507C22.1667 20.1507 22.7407 19.978 23.1992 19.6899C23.6589 19.3434 23.9459 18.9969 24.0602 18.6515H26.8719C26.4122 20.0352 25.7239 21.0164 24.8069 21.6522C23.8876 22.2285 22.7979 22.575 21.4784 22.575C20.6342 22.5776 19.797 22.4209 19.0109 22.113C18.3035 21.8478 17.6727 21.4117 17.1746 20.8437C16.6418 20.3124 16.2479 19.6581 16.0277 18.9385C15.7407 18.1884 15.6252 17.381 15.6252 16.457C15.6252 15.5914 15.7407 14.784 16.0277 14.0327C16.3042 13.3098 16.7129 12.6447 17.2329 12.0715C17.7569 11.5335 18.3801 11.1021 19.0681 10.801C19.8342 10.4931 20.6527 10.3362 21.4784 10.339C22.4537 10.339 23.3147 10.5129 24.0602 10.9165C24.8069 11.3202 25.3797 11.7822 25.8382 12.4752C26.2979 13.1099 26.6432 13.86 26.8719 14.6685C26.9862 15.4759 27.0434 16.2844 26.9862 17.2072H18.6667C18.6667 18.1312 19.0109 18.9969 19.4706 19.4589V19.4577ZM23.0849 13.398C22.6836 12.9944 22.0524 12.7634 21.3057 12.7634C20.7901 12.7634 20.3876 12.88 20.0434 13.0527C19.6992 13.2254 19.4706 13.4564 19.2407 13.6874C19.0292 13.9104 18.889 14.1915 18.8382 14.4947C18.7811 14.784 18.7239 15.015 18.7239 15.2449H23.8876C23.7732 14.3792 23.4862 13.8029 23.0849 13.398ZM18.0356 7.33837H24.4616V8.89703H18.0367V7.33837H18.0356Z" fill="white"/>
</svg>
