<svg width="28" height="28" viewBox="0 0 28 28" fill="none" xmlns="http://www.w3.org/2000/svg">
<path d="M8.68346 6.2417C9.42896 6.2417 10.1185 6.30003 10.7485 6.4727C11.3796 6.5882 11.8965 6.8192 12.355 7.10737C12.8146 7.3967 13.1588 7.80037 13.3875 8.31953C13.6173 8.8387 13.7328 9.47453 13.7328 10.1664C13.7328 10.9749 13.5601 11.6667 13.1588 12.1859C12.8146 12.7062 12.2406 13.167 11.5523 13.5135C12.5276 13.8029 13.2731 14.322 13.7328 15.015C14.1913 15.7069 14.4783 16.5725 14.4783 17.5537C14.4783 18.3622 14.3056 19.054 14.0186 19.6315C13.7328 20.209 13.2731 20.7282 12.7563 21.0747C12.1949 21.4461 11.5743 21.7191 10.9211 21.882C10.2328 22.0559 9.54446 22.1714 8.85613 22.1714H1.16663V6.2417H8.68346ZM8.22379 12.705C8.85496 12.705 9.37179 12.5324 9.77313 12.2442C10.1745 11.956 10.3471 11.4357 10.3471 10.801C10.3471 10.4545 10.2888 10.1092 10.1745 9.8782C10.0601 9.6472 9.88746 9.47337 9.65879 9.3007C9.42896 9.1852 9.19913 9.0697 8.91213 9.01253C8.62513 8.9542 8.33929 8.9542 7.99396 8.9542H4.66663V12.7062H8.22496L8.22379 12.705ZM8.39646 19.516C8.74063 19.516 9.08479 19.4577 9.37179 19.4005C9.65879 19.3422 9.94579 19.2279 10.1745 19.054C10.4082 18.8851 10.6038 18.6689 10.7485 18.4194C10.8628 18.1312 10.9783 17.7847 10.9783 17.381C10.9783 16.5725 10.7485 15.995 10.29 15.5914C9.83029 15.2449 9.19913 15.0722 8.45363 15.0722H4.66663V19.5172L8.39646 19.516ZM19.4705 19.4577C19.929 19.9197 20.6173 20.1507 21.5355 20.1507C22.1666 20.1507 22.7406 19.978 23.1991 19.6899C23.6588 19.3434 23.9458 18.9969 24.0601 18.6515H26.8718C26.4121 20.0352 25.7238 21.0164 24.8068 21.6522C23.8875 22.2285 22.7978 22.575 21.4783 22.575C20.6341 22.5776 19.7969 22.4209 19.0108 22.113C18.3034 21.8478 17.6726 21.4117 17.1745 20.8437C16.6416 20.3124 16.2478 19.6581 16.0276 18.9385C15.7406 18.1884 15.6251 17.381 15.6251 16.457C15.6251 15.5914 15.7406 14.784 16.0276 14.0327C16.304 13.3098 16.7127 12.6447 17.2328 12.0715C17.7567 11.5335 18.3799 11.1021 19.068 10.801C19.8341 10.4931 20.6526 10.3362 21.4783 10.339C22.4536 10.339 23.3146 10.5129 24.0601 10.9165C24.8068 11.3202 25.3796 11.7822 25.8381 12.4752C26.2978 13.1099 26.6431 13.86 26.8718 14.6685C26.9861 15.4759 27.0433 16.2844 26.9861 17.2072H18.6666C18.6666 18.1312 19.0108 18.9969 19.4705 19.4589V19.4577ZM23.0848 13.398C22.6835 12.9944 22.0523 12.7634 21.3056 12.7634C20.79 12.7634 20.3875 12.88 20.0433 13.0527C19.6991 13.2254 19.4705 13.4564 19.2406 13.6874C19.0291 13.9104 18.8889 14.1915 18.8381 14.4947C18.781 14.784 18.7238 15.015 18.7238 15.2449H23.8875C23.7731 14.3792 23.4861 13.8029 23.0848 13.398ZM18.0355 7.33837H24.4615V8.89703H18.0366V7.33837H18.0355Z" fill="white"/>
</svg>
