<svg width="30" height="30" viewBox="0 0 30 30" fill="none" xmlns="http://www.w3.org/2000/svg">
<path d="M10.9126 17.3309C9.51325 17.3309 8.37225 16.0594 8.37225 14.5026C8.37225 12.9472 9.48499 11.677 10.9139 11.677C12.3267 11.677 13.4839 12.9472 13.4556 14.5026C13.4556 16.0594 12.3267 17.3309 10.9126 17.3309ZM20.2962 17.3309C18.8969 17.3309 17.7532 16.0594 17.7532 14.5026C17.7532 12.9472 18.8686 11.677 20.2962 11.677C21.709 11.677 22.8662 12.9472 22.8393 14.5026C22.8393 16.0594 21.7238 17.3309 20.2962 17.3309ZM13.0721 4.51754L12.6577 3.76001L11.8047 3.90129C9.87139 4.22364 7.98986 4.80285 6.21 5.62355L5.90322 5.76618L5.71216 6.04739C2.19632 11.233 1.23159 16.3379 1.70924 21.354L1.76172 21.9003L2.20574 22.2232C4.27406 23.7408 6.58415 24.8977 9.03828 25.6449L10.1012 25.9705L11.5988 22.3147C14.1687 22.9498 17.0212 22.9511 19.5898 22.3147L21.0793 25.9718L22.1423 25.6449C24.5983 24.8996 26.9096 23.7421 28.9775 22.2219L29.4175 21.9016L29.4713 21.3607C30.058 15.5481 28.5335 10.4836 25.4913 6.04201L25.3002 5.76349L24.9934 5.62355C23.214 4.8066 21.3348 4.22753 19.4041 3.90129L18.5726 3.7627L18.1501 4.49063C18.025 4.7083 17.907 4.92998 17.7963 5.15531C16.3367 5.00454 14.8654 5.00454 13.4058 5.15531C13.2986 4.94063 13.1874 4.728 13.0721 4.51754ZM8.48393 21.0499C8.74899 21.2033 9.02886 21.354 9.30469 21.4912L8.70055 22.9659C7.06655 22.3702 5.51627 21.5662 4.08812 20.5736C3.78538 16.35 4.64382 12.0901 7.53803 7.69699C8.75943 7.15907 10.0326 6.74744 11.3378 6.46854C11.4185 6.63673 11.4938 6.80088 11.5557 6.94754L11.9231 7.81271L12.8542 7.67681C14.6788 7.40948 16.5327 7.40948 18.3573 7.67681L19.2857 7.81136L19.6517 6.94754C19.715 6.79684 19.789 6.63269 19.867 6.46854C21.1816 6.7511 22.4544 7.16686 23.6721 7.69969C26.195 11.494 27.4678 15.727 27.0978 20.5723C25.6697 21.5665 24.1183 22.3707 22.4827 22.9646L21.8839 21.4926C22.1611 21.354 22.441 21.2033 22.7087 21.0499C23.368 20.6705 24.0771 20.1969 24.5292 19.7448L22.807 18.0225C22.5876 18.2432 22.1033 18.5876 21.4924 18.9401C20.895 19.2846 20.3016 19.5631 19.9222 19.6882C17.2271 20.5803 13.9642 20.5803 11.2678 19.6882C10.8897 19.5631 10.2963 19.2846 9.69893 18.9401C9.08806 18.589 8.60368 18.2432 8.38301 18.0225L6.66075 19.7448C7.11419 20.1969 7.82462 20.6705 8.48393 21.0499Z" fill="white"/>
</svg>
