<svg width="28" height="28" viewBox="0 0 28 28" fill="none" xmlns="http://www.w3.org/2000/svg">
<path d="M6.86474 21.7619C6.51474 21.5286 6.21375 21.2299 5.86141 20.8099C5.67854 20.5861 5.49731 20.3609 5.31775 20.1344C4.77758 19.4636 4.43691 19.1533 4.08575 19.0261C3.93799 18.9772 3.80151 18.8992 3.68434 18.7968C3.56718 18.6943 3.4717 18.5695 3.40352 18.4296C3.33535 18.2896 3.29586 18.1375 3.28738 17.9821C3.2789 17.8267 3.3016 17.6712 3.35414 17.5247C3.40669 17.3782 3.48801 17.2436 3.59333 17.1291C3.69865 17.0145 3.82584 16.9221 3.96739 16.8574C4.10895 16.7927 4.26202 16.757 4.41759 16.7524C4.57316 16.7477 4.72809 16.7743 4.87325 16.8304C5.75058 17.1454 6.34441 17.6879 7.14475 18.6831C7.03508 18.5466 7.54141 19.1813 7.64991 19.3119C7.87158 19.5768 8.03491 19.7378 8.16325 19.8229C8.40125 19.9828 8.84925 20.0516 9.50491 19.9863C9.53291 19.5406 9.61458 19.1078 9.74058 18.7076C6.27791 17.8618 4.31791 15.6276 4.31791 11.2456C4.31791 9.80127 4.74958 8.49811 5.55224 7.40611C5.29791 6.36311 5.33641 5.10194 5.90458 3.68211C5.96891 3.52128 6.06825 3.3768 6.19539 3.25915C6.32252 3.1415 6.47426 3.05364 6.63958 3.00194C6.73408 2.97394 6.78775 2.96227 6.88225 2.94711C7.81908 2.80361 9.14208 3.14544 10.8664 4.22694C11.894 3.9867 12.9459 3.86613 14.0012 3.86761C15.0652 3.86761 16.1234 3.98777 17.1326 4.22694C18.8557 3.13844 20.1822 2.79544 21.1249 2.94711C21.2241 2.96344 21.3092 2.98444 21.3792 3.00661C21.5412 3.06001 21.6895 3.14828 21.8137 3.26519C21.9378 3.3821 22.0349 3.52481 22.0979 3.68327C22.6661 5.10077 22.7046 6.36194 22.4502 7.40494C23.2564 8.49694 23.6846 9.79077 23.6846 11.2456C23.6846 15.6299 21.7316 17.8559 18.2689 18.7041C18.4147 19.1883 18.4906 19.7284 18.4906 20.3141C18.4906 21.0888 18.4882 21.8296 18.4824 22.6591C18.4824 22.8808 18.4801 23.1188 18.4766 23.4828C18.738 23.5403 18.9717 23.686 19.1384 23.8954C19.3051 24.1048 19.3948 24.3652 19.3923 24.6329C19.3899 24.9005 19.2954 25.1592 19.1249 25.3655C18.9543 25.5718 18.718 25.7132 18.4556 25.7659C17.1256 26.0319 16.1409 25.1453 16.1409 23.9879L16.1432 23.4664L16.1491 22.6439C16.1549 21.8191 16.1584 21.0829 16.1584 20.3141C16.1584 19.5009 15.9437 18.9701 15.6614 18.7263C14.8902 18.0613 15.2811 16.7966 16.2926 16.6834C19.7529 16.2938 21.3512 14.9533 21.3512 11.2468C21.3512 10.1326 20.9872 9.21094 20.2861 8.44094C20.1388 8.27905 20.04 8.07898 20.001 7.86359C19.962 7.64821 19.9844 7.4262 20.0656 7.22294C20.2592 6.73877 20.3409 6.10644 20.1764 5.33994L20.1647 5.34227C19.5919 5.50561 18.8697 5.85561 17.9971 6.45061C17.8564 6.54611 17.6965 6.60968 17.5286 6.63689C17.3607 6.6641 17.1889 6.65427 17.0252 6.60811C16.0405 6.33505 15.0231 6.19767 14.0012 6.19977C12.9629 6.19977 11.9339 6.33977 10.9772 6.60811C10.8144 6.6539 10.6436 6.66374 10.4766 6.63694C10.3096 6.61015 10.1504 6.54737 10.0101 6.45294C9.13158 5.86144 8.40708 5.51144 7.82841 5.34811C7.66158 6.10994 7.74441 6.74111 7.93691 7.22294C8.01812 7.4262 8.0405 7.64821 8.00151 7.86359C7.96252 8.07898 7.86372 8.27905 7.71641 8.44094C7.01991 9.20627 6.65125 10.1431 6.65125 11.2456C6.65125 14.9463 8.25074 16.2973 11.6936 16.6823C12.7027 16.7966 13.0959 18.0566 12.3294 18.7228C12.1042 18.9176 11.8277 19.5768 11.8277 20.3141V23.9879C11.8277 25.1383 10.8547 26.0016 9.54108 25.7718C9.27417 25.7256 9.03164 25.588 8.85508 25.3826C8.67852 25.1772 8.57894 24.9167 8.57342 24.6459C8.56791 24.3751 8.65679 24.1108 8.82483 23.8984C8.99288 23.6859 9.2296 23.5386 9.49441 23.4816V22.3266C8.43274 22.3989 7.55658 22.2251 6.86474 21.7619Z" fill="white"/>
</svg>
