<svg width="28" height="28" viewBox="0 0 28 28" fill="none" xmlns="http://www.w3.org/2000/svg">
<path d="M6.86462 21.7619C6.51462 21.5286 6.21362 21.2299 5.86129 20.8099C5.67842 20.5861 5.49719 20.3609 5.31762 20.1344C4.77746 19.4636 4.43679 19.1533 4.08562 19.0261C3.93787 18.9772 3.80139 18.8992 3.68422 18.7968C3.56706 18.6943 3.47158 18.5695 3.4034 18.4296C3.33523 18.2896 3.29574 18.1375 3.28726 17.9821C3.27877 17.8267 3.30147 17.6712 3.35402 17.5247C3.40656 17.3782 3.48789 17.2436 3.59321 17.1291C3.69853 17.0145 3.82571 16.9221 3.96727 16.8574C4.10883 16.7927 4.2619 16.757 4.41747 16.7524C4.57304 16.7477 4.72797 16.7743 4.87312 16.8304C5.75046 17.1454 6.34429 17.6879 7.14462 18.6831C7.03496 18.5466 7.54129 19.1813 7.64979 19.3119C7.87146 19.5768 8.03479 19.7378 8.16312 19.8229C8.40112 19.9828 8.84912 20.0516 9.50479 19.9863C9.53279 19.5406 9.61446 19.1078 9.74046 18.7076C6.27779 17.8618 4.31779 15.6276 4.31779 11.2456C4.31779 9.80127 4.74946 8.49811 5.55212 7.40611C5.29779 6.36311 5.33629 5.10194 5.90446 3.68211C5.96879 3.52128 6.06813 3.3768 6.19527 3.25915C6.3224 3.1415 6.47413 3.05364 6.63946 3.00194C6.73396 2.97394 6.78762 2.96227 6.88212 2.94711C7.81896 2.80361 9.14196 3.14544 10.8663 4.22694C11.8939 3.9867 12.9458 3.86613 14.0011 3.86761C15.0651 3.86761 16.1233 3.98777 17.1325 4.22694C18.8556 3.13844 20.1821 2.79544 21.1248 2.94711C21.224 2.96344 21.3091 2.98444 21.3791 3.00661C21.5411 3.06001 21.6894 3.14828 21.8135 3.26519C21.9377 3.3821 22.0347 3.52481 22.0978 3.68327C22.666 5.10077 22.7045 6.36194 22.4501 7.40494C23.2563 8.49694 23.6845 9.79077 23.6845 11.2456C23.6845 15.6299 21.7315 17.8559 18.2688 18.7041C18.4146 19.1883 18.4905 19.7284 18.4905 20.3141C18.4905 21.0888 18.4881 21.8296 18.4823 22.6591C18.4823 22.8808 18.48 23.1188 18.4765 23.4828C18.7379 23.5403 18.9715 23.686 19.1383 23.8954C19.305 24.1048 19.3947 24.3652 19.3922 24.6329C19.3897 24.9005 19.2953 25.1592 19.1247 25.3655C18.9542 25.5718 18.7179 25.7132 18.4555 25.7659C17.1255 26.0319 16.1408 25.1453 16.1408 23.9879L16.1431 23.4664L16.149 22.6439C16.1548 21.8191 16.1583 21.0829 16.1583 20.3141C16.1583 19.5009 15.9436 18.9701 15.6613 18.7263C14.8901 18.0613 15.281 16.7966 16.2925 16.6834C19.7528 16.2938 21.3511 14.9533 21.3511 11.2468C21.3511 10.1326 20.9871 9.21094 20.286 8.44094C20.1386 8.27905 20.0399 8.07898 20.0009 7.86359C19.9619 7.64821 19.9843 7.4262 20.0655 7.22294C20.2591 6.73877 20.3408 6.10644 20.1763 5.33994L20.1646 5.34227C19.5918 5.50561 18.8696 5.85561 17.997 6.45061C17.8562 6.54611 17.6963 6.60968 17.5285 6.63689C17.3606 6.6641 17.1888 6.65427 17.0251 6.60811C16.0404 6.33505 15.023 6.19767 14.0011 6.19977C12.9628 6.19977 11.9338 6.33977 10.9771 6.60811C10.8143 6.6539 10.6435 6.66374 10.4765 6.63694C10.3095 6.61015 10.1503 6.54737 10.01 6.45294C9.13146 5.86144 8.40696 5.51144 7.82829 5.34811C7.66146 6.10994 7.74429 6.74111 7.93679 7.22294C8.01799 7.4262 8.04038 7.64821 8.00139 7.86359C7.9624 8.07898 7.8636 8.27905 7.71629 8.44094C7.01979 9.20627 6.65112 10.1431 6.65112 11.2456C6.65112 14.9463 8.25062 16.2973 11.6935 16.6823C12.7026 16.7966 13.0958 18.0566 12.3293 18.7228C12.1041 18.9176 11.8276 19.5768 11.8276 20.3141V23.9879C11.8276 25.1383 10.8546 26.0016 9.54096 25.7718C9.27405 25.7256 9.03151 25.588 8.85496 25.3826C8.6784 25.1772 8.57882 24.9167 8.5733 24.6459C8.56778 24.3751 8.65667 24.1108 8.82471 23.8984C8.99275 23.6859 9.22948 23.5386 9.49429 23.4816V22.3266C8.43262 22.3989 7.55646 22.2251 6.86462 21.7619Z" fill="white"/>
</svg>
