<svg width="23" height="23" viewBox="0 0 23 23" fill="none" xmlns="http://www.w3.org/2000/svg">
<path d="M11.6666 2.72217C10.4941 2.72217 9.33309 2.95311 8.24983 3.40181C7.16657 3.85052 6.18229 4.50819 5.35319 5.33729C3.67876 7.01172 2.73808 9.28273 2.73808 11.6507C2.73808 15.5972 5.30058 18.9454 8.84522 20.1329C9.29165 20.2043 9.4345 19.9275 9.4345 19.6865V18.1775C6.96129 18.7132 6.4345 16.9811 6.4345 16.9811C6.02379 15.9454 5.44343 15.6686 5.44343 15.6686C4.63093 15.115 5.50593 15.1329 5.50593 15.1329C6.39879 15.1954 6.872 16.0525 6.872 16.0525C7.64879 17.4097 8.96129 17.0079 9.47022 16.7936C9.55058 16.2132 9.78272 15.8204 10.0327 15.5972C8.05058 15.374 5.97022 14.6061 5.97022 11.2043C5.97022 10.2132 6.3095 9.4186 6.88986 8.78467C6.80058 8.56145 6.48808 7.63288 6.97915 6.42752C6.97915 6.42752 7.72915 6.18645 9.4345 7.33824C10.1399 7.14181 10.9077 7.0436 11.6666 7.0436C12.4256 7.0436 13.1934 7.14181 13.8988 7.33824C15.6041 6.18645 16.3541 6.42752 16.3541 6.42752C16.8452 7.63288 16.5327 8.56145 16.4434 8.78467C17.0238 9.4186 17.3631 10.2132 17.3631 11.2043C17.3631 14.615 15.2738 15.365 13.2827 15.5882C13.6041 15.865 13.8988 16.4097 13.8988 17.24V19.6865C13.8988 19.9275 14.0416 20.2132 14.497 20.1329C18.0416 18.9365 20.5952 15.5972 20.5952 11.6507C20.5952 10.4782 20.3643 9.31719 19.9156 8.23392C19.4669 7.15066 18.8092 6.16638 17.9801 5.33729C17.151 4.50819 16.1667 3.85052 15.0835 3.40181C14.0002 2.95311 12.8392 2.72217 11.6666 2.72217Z" fill="white"/>
</svg>
