<svg width="28" height="28" viewBox="0 0 28 28" fill="none" xmlns="http://www.w3.org/2000/svg">
<path d="M8.09672 5.83328C8.09641 6.45212 7.85028 7.04549 7.41248 7.48285C6.97467 7.92022 6.38106 8.16576 5.76222 8.16545C5.14338 8.16514 4.55001 7.91901 4.11265 7.4812C3.67528 7.0434 3.42974 6.44978 3.43005 5.83095C3.43036 5.21211 3.67649 4.61874 4.1143 4.18137C4.5521 3.74401 5.14572 3.49847 5.76455 3.49878C6.38339 3.49909 6.97676 3.74522 7.41413 4.18302C7.85149 4.62083 8.09703 5.21444 8.09672 5.83328ZM8.16672 9.89328H3.50005V24.4999H8.16672V9.89328ZM15.5401 9.89328H10.8967V24.4999H15.4934V16.8349C15.4934 12.5649 21.0584 12.1683 21.0584 16.8349V24.4999H25.6667V15.2483C25.6667 8.04995 17.4301 8.31828 15.4934 11.8533L15.5401 9.89328Z" fill="white"/>
</svg>
