<svg width="28" height="28" viewBox="0 0 28 28" fill="none" xmlns="http://www.w3.org/2000/svg">
<path d="M8.0966 5.83328C8.09629 6.45212 7.85016 7.04549 7.41236 7.48285C6.97455 7.92022 6.38094 8.16576 5.7621 8.16545C5.14326 8.16514 4.54989 7.91901 4.11252 7.4812C3.67516 7.0434 3.42962 6.44978 3.42993 5.83095C3.43024 5.21211 3.67637 4.61874 4.11417 4.18137C4.55198 3.74401 5.14559 3.49847 5.76443 3.49878C6.38327 3.49909 6.97664 3.74522 7.41401 4.18302C7.85137 4.62083 8.09691 5.21444 8.0966 5.83328ZM8.1666 9.89328H3.49993V24.4999H8.1666V9.89328ZM15.5399 9.89328H10.8966V24.4999H15.4933V16.8349C15.4933 12.5649 21.0583 12.1683 21.0583 16.8349V24.4999H25.6666V15.2483C25.6666 8.04995 17.4299 8.31828 15.4933 11.8533L15.5399 9.89328Z" fill="white"/>
</svg>
