<svg width="256" height="256" viewBox="0 0 256 256" fill="none" xmlns="http://www.w3.org/2000/svg">
<g clip-path="url(#clip0_83_283)">
<path d="M196 0H60C26.8629 0 0 26.8629 0 60V196C0 229.137 26.8629 256 60 256H196C229.137 256 256 229.137 256 196V60C256 26.8629 229.137 0 196 0Z" fill="#FF6C37"/>
<path d="M169.061 88.612L118.521 139.153L104.268 124.901C153.971 75.199 158.882 79.511 169.061 88.612Z" fill="#EEEEEE"/>
<path d="M118.521 140.35C118.161 140.35 117.922 140.231 117.682 139.991L103.31 125.739C103.196 125.631 103.106 125.501 103.044 125.357C102.983 125.213 102.951 125.058 102.951 124.901C102.951 124.744 102.983 124.589 103.044 124.445C103.106 124.301 103.196 124.171 103.31 124.063C153.851 73.521 159.12 78.312 169.78 87.893C170.02 88.133 170.139 88.373 170.139 88.732C170.139 89.092 170.02 89.331 169.78 89.569L119.239 139.991C119.12 140.231 118.76 140.35 118.521 140.35ZM105.945 124.901L118.521 137.476L167.265 88.732C158.403 80.827 152.414 78.432 105.945 124.901Z" fill="#FF6C37"/>
<path d="M133.012 153.645L119.239 139.872L169.78 89.332C183.314 102.984 163.073 125.141 133.012 153.645Z" fill="#EEEEEE"/>
<path d="M133.012 154.843C132.652 154.843 132.414 154.723 132.174 154.483L118.401 140.71C118.161 140.471 118.161 140.231 118.161 139.872C118.161 139.512 118.281 139.273 118.521 139.033L169.061 88.493C169.169 88.3794 169.299 88.289 169.443 88.2273C169.588 88.1655 169.743 88.1337 169.9 88.1337C170.056 88.1337 170.211 88.1655 170.356 88.2273C170.5 88.289 170.63 88.3794 170.738 88.493C172.267 89.908 173.475 91.6342 174.281 93.5555C175.087 95.4768 175.471 97.5485 175.409 99.631C175.17 112.924 160.079 129.811 133.97 154.483C133.611 154.723 133.251 154.843 133.012 154.843ZM120.916 139.872C128.58 147.656 131.815 150.771 133.012 151.968C153.133 132.806 172.654 113.164 172.774 99.631C172.894 96.517 171.697 93.403 169.66 91.007L120.916 139.872Z" fill="#FF6C37"/>
<path d="M104.508 125.26L114.688 135.44C114.927 135.68 114.927 135.919 114.688 136.159C114.568 136.279 114.568 136.279 114.449 136.279L93.369 140.83C92.292 140.95 91.334 140.231 91.094 139.153C90.974 138.554 91.214 137.956 91.574 137.596L103.789 125.38C104.029 125.14 104.388 125.02 104.508 125.26Z" fill="#EEEEEE"/>
<path d="M93.01 142.028C91.214 142.028 89.896 140.59 89.896 138.793C89.896 137.956 90.256 137.117 90.855 136.518L103.07 124.302C103.789 123.703 104.748 123.703 105.466 124.302L115.646 134.482C116.364 135.081 116.364 136.159 115.646 136.877C115.406 137.117 115.167 137.237 114.807 137.357L93.729 141.908C93.489 141.908 93.249 142.028 93.01 142.028ZM104.149 126.577L92.412 138.314C92.172 138.554 92.052 138.913 92.292 139.272C92.412 139.632 92.77 139.752 93.13 139.632L112.891 135.32L104.149 126.577Z" fill="#FF6C37"/>
<path d="M195.769 60.588C188.104 53.163 175.768 53.402 168.342 61.187C160.917 68.971 161.157 81.187 168.941 88.613C172.014 91.5823 175.983 93.4509 180.23 93.9276C184.476 94.4043 188.761 93.4621 192.416 91.248L178.762 77.594L195.769 60.588Z" fill="#EEEEEE"/>
<path d="M182.355 95.2C170.978 95.2 161.756 85.978 161.756 74.6C161.756 63.222 170.978 54 182.355 54C187.625 54 192.775 56.036 196.607 59.749C196.847 59.989 196.967 60.229 196.967 60.587C196.967 60.947 196.847 61.187 196.607 61.426L180.439 77.594L193.134 90.289C193.614 90.769 193.614 91.487 193.134 91.966L192.895 92.206C189.781 94.121 186.068 95.2 182.355 95.2ZM182.355 56.516C172.295 56.516 164.151 64.659 164.271 74.72C164.271 84.78 172.414 92.924 182.475 92.805C185.23 92.805 187.984 92.205 190.499 90.888L177.924 78.433C177.684 78.193 177.565 77.953 177.565 77.594C177.565 77.234 177.684 76.995 177.924 76.756L193.973 60.707C190.739 57.953 186.667 56.516 182.355 56.516Z" fill="#FF6C37"/>
<path d="M196.128 60.947L195.889 60.707L178.762 77.594L192.296 91.128C193.614 90.289 194.93 89.332 196.009 88.254C197.823 86.4766 199.267 84.3568 200.256 82.0173C201.246 79.6779 201.761 77.1653 201.772 74.6254C201.783 72.0854 201.29 69.5685 200.321 67.2205C199.352 64.8725 197.927 62.7402 196.128 60.947Z" fill="#EEEEEE"/>
<path d="M192.416 92.445C192.056 92.445 191.817 92.325 191.577 92.085L177.924 78.432C177.684 78.192 177.565 77.953 177.565 77.594C177.565 77.234 177.684 76.994 177.924 76.755L194.93 59.75C195.41 59.27 196.128 59.27 196.607 59.75L196.967 59.99C204.991 68.013 204.991 80.948 197.087 89.093C195.889 90.29 194.571 91.368 193.134 92.206C192.775 92.326 192.536 92.445 192.416 92.445ZM180.439 77.594L192.536 89.69C193.494 89.092 194.452 88.253 195.17 87.534C201.997 80.707 202.356 69.569 195.769 62.384L180.439 77.594Z" fill="#FF6C37"/>
<path d="M171.098 90.767C169.715 89.3867 167.842 88.6115 165.888 88.6115C163.934 88.6115 162.061 89.3867 160.678 90.767L115.526 135.919L123.072 143.464L170.858 101.547C173.972 98.911 174.211 94.24 171.577 91.127C171.337 91.007 171.217 90.887 171.098 90.767Z" fill="#EEEEEE"/>
<path d="M122.952 144.662C122.593 144.662 122.353 144.542 122.113 144.303L114.568 136.758C114.454 136.65 114.364 136.52 114.302 136.376C114.241 136.231 114.209 136.076 114.209 135.919C114.209 135.763 114.241 135.607 114.302 135.463C114.364 135.319 114.454 135.189 114.568 135.081L159.719 89.9289C160.512 89.1319 161.454 88.4994 162.492 88.0678C163.53 87.6362 164.643 87.4141 165.768 87.4141C166.892 87.4141 168.005 87.6362 169.043 88.0678C170.081 88.4994 171.023 89.1319 171.816 89.9289C172.613 90.7216 173.246 91.6641 173.677 92.7021C174.109 93.7401 174.331 94.8532 174.331 95.9774C174.331 97.1016 174.109 98.2148 173.677 99.2528C173.246 100.291 172.613 101.233 171.816 102.026L171.457 102.385L123.67 144.303C123.551 144.542 123.311 144.662 122.952 144.662ZM117.203 135.919L123.072 141.788L170.02 100.588C172.654 98.4319 172.894 94.4799 170.738 91.8459C168.582 89.2109 164.63 88.9719 161.995 91.1259C161.876 91.2459 161.756 91.3659 161.516 91.4859L117.203 135.919Z" fill="#FF6C37"/>
<path d="M80.914 187.3C80.434 187.539 80.195 188.018 80.314 188.497L82.351 197.121C82.831 198.318 82.111 199.756 80.794 200.115C79.836 200.474 78.759 200.115 78.16 199.397L64.985 186.342L107.981 143.346L122.832 143.585L132.892 153.646C130.497 155.682 116.005 169.694 80.914 187.3Z" fill="#EEEEEE"/>
<path d="M79.956 201.311C78.998 201.311 78.04 200.952 77.441 200.234L64.386 187.179C64.146 186.94 64.027 186.7 64.027 186.341C64.027 185.982 64.147 185.742 64.387 185.502L107.382 142.507C107.622 142.267 107.981 142.147 108.221 142.147L123.072 142.387C123.431 142.387 123.67 142.507 123.909 142.746L133.97 152.806C134.21 153.046 134.329 153.405 134.329 153.764C134.329 154.124 134.21 154.363 133.85 154.603L133.012 155.322C120.317 166.459 103.07 177.598 81.632 188.257L83.669 196.76C84.028 198.317 83.309 199.994 81.872 200.832C81.153 201.191 80.555 201.311 79.956 201.311ZM66.781 186.341L79.118 198.557C79.476 199.156 80.195 199.395 80.794 199.036C81.393 198.677 81.633 197.958 81.274 197.359L79.238 188.736C78.998 187.658 79.476 186.7 80.435 186.221C101.633 175.562 118.76 164.544 131.335 153.645L122.473 144.782L108.7 144.542L66.781 186.341Z" fill="#FF6C37"/>
<path d="M54.805 196.641L65.105 186.341L80.435 201.671L56.003 199.995C54.925 199.875 54.206 198.917 54.326 197.838C54.326 197.359 54.445 196.88 54.805 196.641Z" fill="#EEEEEE"/>
<path d="M80.435 202.749L55.883 201.072C54.086 200.952 52.888 199.396 53.008 197.599C53.128 196.88 53.368 196.162 53.967 195.683L64.267 185.383C64.3751 185.27 64.5051 185.179 64.6491 185.117C64.7932 185.056 64.9483 185.024 65.105 185.024C65.2617 185.024 65.4168 185.056 65.5609 185.117C65.7049 185.179 65.8349 185.27 65.943 185.383L81.273 200.713C81.633 201.072 81.753 201.551 81.513 202.031C81.273 202.51 80.913 202.749 80.435 202.749ZM65.105 188.018L55.643 197.479C55.284 197.719 55.284 198.318 55.643 198.557C55.763 198.677 55.883 198.797 56.123 198.797L77.321 200.234L65.105 188.018ZM103.789 148.855C103.07 148.855 102.591 148.256 102.591 147.657C102.591 147.298 102.711 147.059 102.951 146.819L114.568 135.202C114.676 135.088 114.806 134.998 114.95 134.936C115.094 134.874 115.25 134.842 115.407 134.842C115.563 134.842 115.719 134.874 115.863 134.936C116.007 134.998 116.137 135.088 116.245 135.202L123.79 142.747C124.149 143.106 124.269 143.465 124.149 143.945C124.029 144.304 123.67 144.663 123.192 144.783L104.029 148.855H103.789ZM115.406 137.717L107.502 145.622L120.436 142.866L115.406 137.717Z" fill="#FF6C37"/>
<path d="M122.832 143.584L109.658 146.459C108.7 146.699 107.741 146.1 107.502 145.142C107.382 144.543 107.502 143.944 107.981 143.465L115.286 136.159L122.832 143.584Z" fill="#EEEEEE"/>
<path d="M109.418 147.657C109.024 147.661 108.633 147.586 108.268 147.437C107.902 147.288 107.571 147.068 107.292 146.789C107.013 146.51 106.793 146.179 106.644 145.814C106.495 145.448 106.42 145.057 106.424 144.663C106.424 143.825 106.783 143.106 107.262 142.508L114.568 135.202C114.676 135.088 114.806 134.998 114.95 134.936C115.094 134.874 115.25 134.842 115.407 134.842C115.563 134.842 115.719 134.874 115.863 134.936C116.007 134.998 116.137 135.088 116.245 135.202L123.79 142.747C124.149 143.106 124.269 143.465 124.149 143.945C124.029 144.304 123.67 144.663 123.192 144.783L110.017 147.657H109.418ZM115.406 137.717L108.939 144.184C108.7 144.424 108.7 144.663 108.819 144.903C108.939 145.142 109.179 145.262 109.538 145.262L120.556 142.866L115.406 137.717ZM196.248 72.443C196.009 71.725 195.17 71.366 194.451 71.606C193.733 71.844 193.374 72.683 193.614 73.402C193.614 73.522 193.733 73.642 193.733 73.761C194.451 75.199 194.213 76.995 193.254 78.312C192.775 78.912 192.895 79.75 193.374 80.229C193.973 80.707 194.811 80.589 195.29 79.989C197.087 77.713 197.446 74.839 196.248 72.443Z" fill="#FF6C37"/>
</g>
<defs>
<clipPath id="clip0_83_283">
<rect width="256" height="256" fill="white"/>
</clipPath>
</defs>
</svg>
