<svg width="256" height="256" viewBox="0 0 256 256" fill="none" xmlns="http://www.w3.org/2000/svg">
<g clip-path="url(#clip0_76_175)">
<path d="M196 0H60C26.8629 0 0 26.8629 0 60V196C0 229.137 26.8629 256 60 256H196C229.137 256 256 229.137 256 196V60C256 26.8629 229.137 0 196 0Z" fill="#242938"/>
<path d="M101.634 182.619C101.634 182.619 93.954 187.293 106.979 188.63C122.707 190.634 131.023 190.299 148.386 186.962C148.386 186.962 153.06 189.971 159.406 192.306C120.331 209.002 70.909 191.304 101.634 182.619ZM96.625 160.914C96.625 160.914 88.275 167.26 101.299 168.593C118.327 170.262 131.69 170.597 154.732 165.926C154.732 165.926 157.741 169.267 162.747 170.936C115.664 184.961 62.897 172.269 96.625 160.917V160.914ZM188.795 198.984C188.795 198.984 194.471 203.658 182.449 207.334C160.073 214.012 88.61 216.019 68.573 207.334C61.564 204.325 74.92 199.982 79.259 199.319C83.601 198.317 85.937 198.317 85.937 198.317C78.257 192.973 34.842 209.337 63.896 214.046C143.709 227.073 209.499 208.37 188.792 199.018L188.795 198.984ZM105.307 138.203C105.307 138.203 68.905 146.888 92.279 149.89C102.298 151.223 122 150.892 140.368 149.555C155.396 148.221 170.458 145.548 170.458 145.548C170.458 145.548 165.113 147.886 161.441 150.222C124.342 159.915 53.211 155.573 73.583 145.554C90.953 137.204 105.307 138.203 105.307 138.203ZM170.423 174.604C207.83 155.234 190.46 136.534 178.438 138.873C175.429 139.54 174.096 140.207 174.096 140.207C174.096 140.207 175.097 138.203 177.436 137.54C201.145 129.19 219.849 162.586 169.757 175.61C169.757 175.61 170.092 175.275 170.423 174.608V174.604ZM108.979 227.364C145.046 229.703 200.147 226.03 201.484 208.995C201.484 208.995 198.817 215.673 171.764 220.683C141.042 226.359 102.968 225.692 80.596 222.016C80.596 222.016 85.27 226.023 108.982 227.36L108.979 227.364Z" fill="white"/>
<path d="M147.685 28C147.685 28 168.389 49.039 127.983 80.76C95.589 106.472 120.632 121.168 127.983 137.861C108.948 120.833 95.261 105.802 104.606 91.776C118.331 71.083 156.062 61.064 147.685 28ZM137 123.842C146.683 134.862 134.333 144.881 134.333 144.881C134.333 144.881 159.044 132.195 147.692 116.494C137.338 101.466 129.324 94.118 172.738 69.069C172.738 69.069 104.278 86.097 137.007 123.835L137 123.842Z" fill="#F58219"/>
</g>
<defs>
<clipPath id="clip0_76_175">
<rect width="256" height="256" fill="white"/>
</clipPath>
</defs>
</svg>
