<svg width="256" height="256" viewBox="0 0 256 256" fill="none" xmlns="http://www.w3.org/2000/svg">
<g clip-path="url(#clip0_82_211)">
<path d="M196 0H60C26.8629 0 0 26.8629 0 60V196C0 229.137 26.8629 256 60 256H196C229.137 256 256 229.137 256 196V60C256 26.8629 229.137 0 196 0Z" fill="#242938"/>
<path d="M217 69H39C33.477 69 29 73.477 29 79V177C29 182.523 33.477 187 39 187H217C222.523 187 227 182.523 227 177V79C227 73.477 222.523 69 217 69Z" stroke="white" stroke-width="10"/>
<path d="M54 162V94H74L94 119L114 94H134V162H114V123L94 148L74 123V162H54ZM179 162L149 129H169V94H189V129H209L179 162Z" fill="white"/>
</g>
<defs>
<clipPath id="clip0_82_211">
<rect width="256" height="256" fill="white"/>
</clipPath>
</defs>
</svg>
