<svg width="28" height="28" viewBox="0 0 28 28" fill="none" xmlns="http://www.w3.org/2000/svg">
<g clip-path="url(#clip0_149_56)">
<path d="M26.0761 9.35547L18.6445 1.92381C17.4127 0.692014 15.742 0 14 0C12.258 0 10.5873 0.692014 9.35547 1.92381L1.92381 9.35547C0.692014 10.5873 0 12.258 0 14C0 15.742 0.692014 17.4127 1.92381 18.6445L9.35547 26.0761C10.5873 27.3079 12.258 27.9999 14 27.9999C15.742 27.9999 17.4127 27.3079 18.6445 26.0761L26.0761 18.6445C27.3079 17.4127 27.9999 15.742 27.9999 14C27.9999 12.258 27.3079 10.5873 26.0761 9.35547ZM14 18.6118C13.3943 18.6118 12.7946 18.4925 12.2351 18.2608C11.6756 18.029 11.1672 17.6893 10.7389 17.261C10.3107 16.8328 9.97096 16.3244 9.7392 15.7648C9.50743 15.2053 9.38814 14.6056 9.38814 14C9.38814 13.3943 9.50743 12.7946 9.7392 12.2351C9.97096 11.6756 10.3107 11.1672 10.7389 10.7389C11.1672 10.3107 11.6756 9.97096 12.2351 9.7392C12.7946 9.50743 13.3943 9.38814 14 9.38814C15.2231 9.38814 16.3961 9.87403 17.261 10.7389C18.1259 11.6038 18.6118 12.7768 18.6118 14C18.6118 15.2231 18.1259 16.3961 17.261 17.261C16.3961 18.1259 15.2231 18.6118 14 18.6118Z" fill="white"/>
</g>
<defs>
<clipPath id="clip0_149_56">
<rect width="28" height="28" fill="white"/>
</clipPath>
</defs>
</svg>
